<?xml version="1.0" standalone="no"?>
<!DOCTYPE svg PUBLIC "-//W3C//DTD SVG 20010904//EN"
 "http://www.w3.org/TR/2001/REC-SVG-20010904/DTD/svg10.dtd">
<svg version="1.0" xmlns="http://www.w3.org/2000/svg"
 width="77.000000pt" height="77.000000pt" viewBox="0 0 77.000000 77.000000"
 preserveAspectRatio="xMidYMid meet">
<metadata>
Created by potrace 1.14, written by Peter Selinger 2001-2017
</metadata>
<g transform="translate(0.000000,77.000000) scale(0.100000,-0.100000)"
fill="#000000" stroke="none">
<path d="M376 742 c-3 -2 -20 -6 -39 -7 -93 -9 -245 -144 -262 -232 -2 -10 -4
-18 -6 -18 -5 0 -10 -56 -10 -107 0 -78 2 -91 14 -106 5 -6 6 -12 2 -12 -4 0
-2 -7 5 -15 7 -8 9 -15 6 -15 -9 0 6 -18 72 -90 45 -49 100 -88 135 -96 4 -1
8 -2 10 -4 19 -15 222 -16 222 0 0 1 8 3 18 5 10 2 27 11 36 19 10 9 22 16 27
16 10 0 124 120 124 131 0 14 -27 16 -202 15 -98 -1 -178 1 -178 4 0 3 80 86
178 185 l177 180 -40 41 c-40 40 -140 96 -180 101 -67 7 -105 9 -109 5z m102
-170 c-7 -9 -60 -64 -118 -122 -58 -58 -115 -118 -127 -133 l-22 -28 -7 47
c-7 50 11 154 27 154 5 0 9 5 9 11 0 24 82 81 128 88 19 3 55 4 79 2 39 -3 42
-5 31 -19z"/>
</g>
</svg>
